<mxfile host="app.diagrams.net" modified="2021-11-09T14:38:00.050Z" agent="5.0 (Windows NT 10.0; Win64; x64) AppleWebKit/537.36 (KHTML, like Gecko) Chrome/95.0.4638.69 Safari/537.36" etag="dR0Mq4GFXodRz7r4n-qe" version="15.7.0" type="github">
  <diagram id="hdg2vdtkORWnQn_9mXNy" name="Page-1">
    <mxGraphModel dx="4154" dy="2065" grid="1" gridSize="10" guides="1" tooltips="1" connect="1" arrows="1" fold="1" page="1" pageScale="1" pageWidth="827" pageHeight="1169" math="0" shadow="0">
      <root>
        <mxCell id="0" />
        <mxCell id="1" parent="0" />
        <mxCell id="4TRkInArZm3En_-aM4AT-1" value="GYM" style="rounded=0;whiteSpace=wrap;html=1;hachureGap=4;pointerEvents=0;fontSize=16;fontStyle=1" parent="1" vertex="1">
          <mxGeometry x="460" y="142.5" width="150" height="100" as="geometry" />
        </mxCell>
        <mxCell id="4TRkInArZm3En_-aM4AT-2" value="MANAGE" style="rhombus;whiteSpace=wrap;html=1;hachureGap=4;pointerEvents=0;" parent="1" vertex="1">
          <mxGeometry x="-160" y="130" width="150" height="125" as="geometry" />
        </mxCell>
        <mxCell id="4TRkInArZm3En_-aM4AT-5" value="MANAGER" style="rounded=0;whiteSpace=wrap;html=1;hachureGap=4;pointerEvents=0;direction=south;fontSize=16;fontStyle=1" parent="1" vertex="1">
          <mxGeometry x="-620" y="142.5" width="150" height="100" as="geometry" />
        </mxCell>
        <mxCell id="4TRkInArZm3En_-aM4AT-6" value="&lt;u&gt;U_NI_NR&lt;/u&gt;" style="ellipse;whiteSpace=wrap;html=1;hachureGap=4;pointerEvents=0;autosize=0;" parent="1" vertex="1">
          <mxGeometry x="-1630" y="290" width="95" height="80" as="geometry" />
        </mxCell>
        <mxCell id="4TRkInArZm3En_-aM4AT-10" value="U_PASSPORT&lt;br&gt;_NR" style="ellipse;whiteSpace=wrap;html=1;hachureGap=4;pointerEvents=0;autosize=0;" parent="1" vertex="1">
          <mxGeometry x="-1380" y="312.5" width="95" height="80" as="geometry" />
        </mxCell>
        <mxCell id="4TRkInArZm3En_-aM4AT-11" value="U_EMAIL" style="ellipse;whiteSpace=wrap;html=1;hachureGap=4;pointerEvents=0;autosize=0;" parent="1" vertex="1">
          <mxGeometry x="-1580" y="147.5" width="95" height="80" as="geometry" />
        </mxCell>
        <mxCell id="4TRkInArZm3En_-aM4AT-13" value="U_NAME" style="ellipse;whiteSpace=wrap;html=1;hachureGap=4;pointerEvents=0;autosize=0;" parent="1" vertex="1">
          <mxGeometry x="-1675" y="197.5" width="95" height="80" as="geometry" />
        </mxCell>
        <mxCell id="4TRkInArZm3En_-aM4AT-17" value="U_GENDER" style="ellipse;whiteSpace=wrap;html=1;hachureGap=4;pointerEvents=0;autosize=0;" parent="1" vertex="1">
          <mxGeometry x="-1520" y="297.5" width="95" height="80" as="geometry" />
        </mxCell>
        <mxCell id="4TRkInArZm3En_-aM4AT-19" value="U_ADDRESS" style="ellipse;whiteSpace=wrap;html=1;hachureGap=4;pointerEvents=0;autosize=0;" parent="1" vertex="1">
          <mxGeometry x="-1390" y="67.5" width="95" height="80" as="geometry" />
        </mxCell>
        <mxCell id="4TRkInArZm3En_-aM4AT-23" value="U_PHONE_NR" style="ellipse;whiteSpace=wrap;html=1;hachureGap=4;pointerEvents=0;autosize=0;" parent="1" vertex="1">
          <mxGeometry x="-1520" y="50" width="95" height="80" as="geometry" />
        </mxCell>
        <mxCell id="4TRkInArZm3En_-aM4AT-26" value="G_ADDRESS" style="ellipse;whiteSpace=wrap;html=1;hachureGap=4;pointerEvents=0;" parent="1" vertex="1">
          <mxGeometry x="1000" y="-165" width="95" height="80" as="geometry" />
        </mxCell>
        <mxCell id="4TRkInArZm3En_-aM4AT-29" value="&lt;u&gt;G_VAT NR&lt;/u&gt;" style="ellipse;whiteSpace=wrap;html=1;hachureGap=4;pointerEvents=0;" parent="1" vertex="1">
          <mxGeometry x="732" y="-245" width="95" height="80" as="geometry" />
        </mxCell>
        <mxCell id="4TRkInArZm3En_-aM4AT-30" value="G_NAME" style="ellipse;whiteSpace=wrap;html=1;hachureGap=4;pointerEvents=0;" parent="1" vertex="1">
          <mxGeometry x="720" y="-390" width="95" height="80" as="geometry" />
        </mxCell>
        <mxCell id="4TRkInArZm3En_-aM4AT-31" value="G_OPENING_&lt;br&gt;DATE" style="ellipse;whiteSpace=wrap;html=1;hachureGap=4;pointerEvents=0;" parent="1" vertex="1">
          <mxGeometry x="625" y="-310" width="95" height="85" as="geometry" />
        </mxCell>
        <mxCell id="4TRkInArZm3En_-aM4AT-32" value="G_PHONE" style="ellipse;whiteSpace=wrap;html=1;hachureGap=4;pointerEvents=0;" parent="1" vertex="1">
          <mxGeometry x="867.5" y="-325" width="95" height="80" as="geometry" />
        </mxCell>
        <mxCell id="4TRkInArZm3En_-aM4AT-33" value="G_EMAIL" style="ellipse;whiteSpace=wrap;html=1;hachureGap=4;pointerEvents=0;" parent="1" vertex="1">
          <mxGeometry x="750" y="40" width="95" height="80" as="geometry" />
        </mxCell>
        <mxCell id="4TRkInArZm3En_-aM4AT-34" value="G_OPENING_&lt;br&gt;TIME" style="ellipse;whiteSpace=wrap;html=1;hachureGap=4;pointerEvents=0;" parent="1" vertex="1">
          <mxGeometry x="497.5" y="-320" width="95" height="80" as="geometry" />
        </mxCell>
        <mxCell id="4TRkInArZm3En_-aM4AT-42" value="TYPE_OF_SPORT" style="rounded=0;whiteSpace=wrap;html=1;hachureGap=4;pointerEvents=0;fontSize=16;fontStyle=1" parent="1" vertex="1">
          <mxGeometry x="1200" y="962.5" width="150" height="100" as="geometry" />
        </mxCell>
        <mxCell id="4TRkInArZm3En_-aM4AT-43" value="S_NAME" style="ellipse;whiteSpace=wrap;html=1;hachureGap=4;pointerEvents=0;" parent="1" vertex="1">
          <mxGeometry x="1600" y="1020" width="95" height="80" as="geometry" />
        </mxCell>
        <mxCell id="4TRkInArZm3En_-aM4AT-44" value="S_&lt;br&gt;DESCRIPTION" style="ellipse;whiteSpace=wrap;html=1;hachureGap=4;pointerEvents=0;" parent="1" vertex="1">
          <mxGeometry x="1630" y="830" width="95" height="80" as="geometry" />
        </mxCell>
        <mxCell id="4TRkInArZm3En_-aM4AT-46" value="S_REC_AGE_ GROUP" style="ellipse;whiteSpace=wrap;html=1;hachureGap=4;pointerEvents=0;" parent="1" vertex="1">
          <mxGeometry x="1700" y="972.5" width="95" height="80" as="geometry" />
        </mxCell>
        <mxCell id="4TRkInArZm3En_-aM4AT-47" value="S_EXERCISE_ DURATION" style="ellipse;whiteSpace=wrap;html=1;hachureGap=4;pointerEvents=0;" parent="1" vertex="1">
          <mxGeometry x="1440" y="850" width="95" height="80" as="geometry" />
        </mxCell>
        <mxCell id="4TRkInArZm3En_-aM4AT-48" value="S_LVL_PHY_&lt;br&gt;DEMAND" style="ellipse;whiteSpace=wrap;html=1;hachureGap=4;pointerEvents=0;" parent="1" vertex="1">
          <mxGeometry x="1505" y="1075" width="95" height="80" as="geometry" />
        </mxCell>
        <mxCell id="TNOlmFblQoI8VBXt5ZoZ-1" value="G_CITY" style="ellipse;whiteSpace=wrap;html=1;" parent="1" vertex="1">
          <mxGeometry x="732" y="-70" width="95" height="80" as="geometry" />
        </mxCell>
        <mxCell id="TNOlmFblQoI8VBXt5ZoZ-7" value="SPACE" style="rounded=0;whiteSpace=wrap;html=1;strokeWidth=5;strokeColor=#FF0000;fontSize=16;fontStyle=1" parent="1" vertex="1">
          <mxGeometry x="1200" y="150" width="150" height="100" as="geometry" />
        </mxCell>
        <mxCell id="TNOlmFblQoI8VBXt5ZoZ-13" value="INCLUDES" style="rhombus;whiteSpace=wrap;html=1;strokeWidth=5;strokeColor=#FF0000;" parent="1" vertex="1">
          <mxGeometry x="840" y="135" width="150" height="125" as="geometry" />
        </mxCell>
        <mxCell id="TNOlmFblQoI8VBXt5ZoZ-56" value="TYPE_OF_&lt;br&gt;EQUIPMENT" style="rounded=0;whiteSpace=wrap;html=1;fontSize=16;fontStyle=1" parent="1" vertex="1">
          <mxGeometry x="1880" y="147.5" width="150" height="100" as="geometry" />
        </mxCell>
        <mxCell id="TNOlmFblQoI8VBXt5ZoZ-57" value="INCLUDES_2" style="rhombus;whiteSpace=wrap;html=1;" parent="1" vertex="1">
          <mxGeometry x="1550" y="137.5" width="150" height="125" as="geometry" />
        </mxCell>
        <mxCell id="TNOlmFblQoI8VBXt5ZoZ-59" value="" style="endArrow=none;html=1;fillColor=#000000;exitX=1;exitY=0.5;exitDx=0;exitDy=0;entryX=0;entryY=0.5;entryDx=0;entryDy=0;" parent="1" source="TNOlmFblQoI8VBXt5ZoZ-57" target="TNOlmFblQoI8VBXt5ZoZ-56" edge="1">
          <mxGeometry width="50" height="50" relative="1" as="geometry">
            <mxPoint x="840" y="510" as="sourcePoint" />
            <mxPoint x="890" y="460" as="targetPoint" />
          </mxGeometry>
        </mxCell>
        <mxCell id="TNOlmFblQoI8VBXt5ZoZ-60" value="E_NAME" style="ellipse;whiteSpace=wrap;html=1;" parent="1" vertex="1">
          <mxGeometry x="1973" y="-40" width="95" height="80" as="geometry" />
        </mxCell>
        <mxCell id="TNOlmFblQoI8VBXt5ZoZ-61" value="I_NR" style="ellipse;whiteSpace=wrap;html=1;" parent="1" vertex="1">
          <mxGeometry x="1577.5" y="-30" width="95" height="80" as="geometry" />
        </mxCell>
        <mxCell id="TNOlmFblQoI8VBXt5ZoZ-64" value="" style="endArrow=none;html=1;fillColor=#000000;exitX=0.5;exitY=0;exitDx=0;exitDy=0;entryX=0.5;entryY=1;entryDx=0;entryDy=0;" parent="1" source="TNOlmFblQoI8VBXt5ZoZ-56" target="TNOlmFblQoI8VBXt5ZoZ-60" edge="1">
          <mxGeometry width="50" height="50" relative="1" as="geometry">
            <mxPoint x="930" y="510" as="sourcePoint" />
            <mxPoint x="2090" y="180" as="targetPoint" />
          </mxGeometry>
        </mxCell>
        <mxCell id="TNOlmFblQoI8VBXt5ZoZ-65" value="" style="endArrow=none;html=1;fillColor=#000000;" parent="1" source="TNOlmFblQoI8VBXt5ZoZ-57" target="TNOlmFblQoI8VBXt5ZoZ-61" edge="1">
          <mxGeometry width="50" height="50" relative="1" as="geometry">
            <mxPoint x="930" y="510" as="sourcePoint" />
            <mxPoint x="980" y="460" as="targetPoint" />
          </mxGeometry>
        </mxCell>
        <mxCell id="zpkmHXnzWcy7r22Rmnru-5" value="SP_AREA_M2" style="ellipse;whiteSpace=wrap;html=1;" parent="1" vertex="1">
          <mxGeometry x="1170" y="-50" width="95" height="80" as="geometry" />
        </mxCell>
        <mxCell id="zpkmHXnzWcy7r22Rmnru-8" value="&lt;u&gt;E_ID&lt;/u&gt;" style="ellipse;whiteSpace=wrap;html=1;" parent="1" vertex="1">
          <mxGeometry x="1845" y="-40" width="95" height="80" as="geometry" />
        </mxCell>
        <mxCell id="eBdyAH_MPgxRvwM_sHwe-4" value="" style="edgeStyle=segmentEdgeStyle;endArrow=classic;html=1;rounded=0;entryX=1;entryY=0.5;entryDx=0;entryDy=0;exitX=0;exitY=0.5;exitDx=0;exitDy=0;strokeColor=#000000;strokeWidth=5;startArrow=none;" parent="1" source="4TRkInArZm3En_-aM4AT-1" target="4TRkInArZm3En_-aM4AT-2" edge="1">
          <mxGeometry width="50" height="50" relative="1" as="geometry">
            <mxPoint x="550" y="219.41" as="sourcePoint" />
            <mxPoint x="440" y="219.41" as="targetPoint" />
            <Array as="points" />
          </mxGeometry>
        </mxCell>
        <mxCell id="eBdyAH_MPgxRvwM_sHwe-5" value="&lt;u&gt;SPORT_ID&lt;/u&gt;" style="ellipse;whiteSpace=wrap;html=1;hachureGap=4;pointerEvents=0;" parent="1" vertex="1">
          <mxGeometry x="1450" y="770" width="102.5" height="80" as="geometry" />
        </mxCell>
        <mxCell id="ZJh7k_RnWvVlNWQJP8Ni-7" value="IS_CAPACITY" style="ellipse;whiteSpace=wrap;html=1;hachureGap=4;pointerEvents=0;" parent="1" vertex="1">
          <mxGeometry x="1380" y="610" width="95" height="80" as="geometry" />
        </mxCell>
        <mxCell id="ZJh7k_RnWvVlNWQJP8Ni-8" value="" style="endArrow=none;html=1;fillColor=#000000;exitX=1;exitY=0.5;exitDx=0;exitDy=0;entryX=0;entryY=0.5;entryDx=0;entryDy=0;" parent="1" source="TNOlmFblQoI8VBXt5ZoZ-30" target="ZJh7k_RnWvVlNWQJP8Ni-7" edge="1">
          <mxGeometry width="50" height="50" relative="1" as="geometry">
            <mxPoint x="1130" y="440" as="sourcePoint" />
            <mxPoint x="1130" y="260" as="targetPoint" />
          </mxGeometry>
        </mxCell>
        <mxCell id="TNOlmFblQoI8VBXt5ZoZ-30" value="IS_SUITABLE" style="rhombus;whiteSpace=wrap;html=1;" parent="1" vertex="1">
          <mxGeometry x="1200" y="587.5" width="150" height="125" as="geometry" />
        </mxCell>
        <mxCell id="ZJh7k_RnWvVlNWQJP8Ni-15" value="U_BIRTH_DATE" style="ellipse;whiteSpace=wrap;html=1;hachureGap=4;pointerEvents=0;autosize=0;" parent="1" vertex="1">
          <mxGeometry x="-1640" y="80" width="95" height="80" as="geometry" />
        </mxCell>
        <mxCell id="ZJh7k_RnWvVlNWQJP8Ni-18" value="" style="endArrow=none;html=1;sourcePerimeterSpacing=8;targetPerimeterSpacing=8;entryX=1;entryY=0;entryDx=0;entryDy=0;exitX=0.5;exitY=1;exitDx=0;exitDy=0;" parent="1" source="J_9MN064SPP7KZqGjW3G-2" target="4TRkInArZm3En_-aM4AT-10" edge="1">
          <mxGeometry width="50" height="50" relative="1" as="geometry">
            <mxPoint x="220" y="607.5" as="sourcePoint" />
            <mxPoint x="-15" y="390" as="targetPoint" />
          </mxGeometry>
        </mxCell>
        <mxCell id="ZJh7k_RnWvVlNWQJP8Ni-19" value="" style="endArrow=none;html=1;sourcePerimeterSpacing=8;targetPerimeterSpacing=8;entryX=1;entryY=1;entryDx=0;entryDy=0;exitX=0.5;exitY=1;exitDx=0;exitDy=0;" parent="1" source="J_9MN064SPP7KZqGjW3G-2" target="4TRkInArZm3En_-aM4AT-23" edge="1">
          <mxGeometry width="50" height="50" relative="1" as="geometry">
            <mxPoint x="-65.53125" y="332" as="sourcePoint" />
            <mxPoint x="-22.5" y="230" as="targetPoint" />
          </mxGeometry>
        </mxCell>
        <mxCell id="ZJh7k_RnWvVlNWQJP8Ni-20" value="" style="endArrow=none;html=1;sourcePerimeterSpacing=8;targetPerimeterSpacing=8;entryX=1;entryY=0.5;entryDx=0;entryDy=0;exitX=0.5;exitY=1;exitDx=0;exitDy=0;" parent="1" source="J_9MN064SPP7KZqGjW3G-2" target="ZJh7k_RnWvVlNWQJP8Ni-15" edge="1">
          <mxGeometry width="50" height="50" relative="1" as="geometry">
            <mxPoint x="-55.53125" y="342" as="sourcePoint" />
            <mxPoint x="-12.5" y="240" as="targetPoint" />
          </mxGeometry>
        </mxCell>
        <mxCell id="ZJh7k_RnWvVlNWQJP8Ni-21" value="" style="endArrow=none;html=1;sourcePerimeterSpacing=8;targetPerimeterSpacing=8;entryX=1;entryY=0.5;entryDx=0;entryDy=0;exitX=0.5;exitY=1;exitDx=0;exitDy=0;" parent="1" source="J_9MN064SPP7KZqGjW3G-2" target="4TRkInArZm3En_-aM4AT-11" edge="1">
          <mxGeometry width="50" height="50" relative="1" as="geometry">
            <mxPoint x="-45.53125" y="352" as="sourcePoint" />
            <mxPoint x="-2.5" y="250" as="targetPoint" />
          </mxGeometry>
        </mxCell>
        <mxCell id="ZJh7k_RnWvVlNWQJP8Ni-22" value="" style="endArrow=none;html=1;sourcePerimeterSpacing=8;targetPerimeterSpacing=8;entryX=1;entryY=0.5;entryDx=0;entryDy=0;exitX=0.5;exitY=1;exitDx=0;exitDy=0;" parent="1" source="J_9MN064SPP7KZqGjW3G-2" target="4TRkInArZm3En_-aM4AT-13" edge="1">
          <mxGeometry width="50" height="50" relative="1" as="geometry">
            <mxPoint x="-100" y="340" as="sourcePoint" />
            <mxPoint x="7.5" y="260" as="targetPoint" />
          </mxGeometry>
        </mxCell>
        <mxCell id="ZJh7k_RnWvVlNWQJP8Ni-23" value="" style="endArrow=none;html=1;sourcePerimeterSpacing=8;targetPerimeterSpacing=8;exitX=0.5;exitY=1;exitDx=0;exitDy=0;entryX=1;entryY=0;entryDx=0;entryDy=0;" parent="1" source="J_9MN064SPP7KZqGjW3G-2" target="4TRkInArZm3En_-aM4AT-6" edge="1">
          <mxGeometry width="50" height="50" relative="1" as="geometry">
            <mxPoint x="-25.53125" y="372" as="sourcePoint" />
            <mxPoint x="-1120" y="455" as="targetPoint" />
          </mxGeometry>
        </mxCell>
        <mxCell id="ZJh7k_RnWvVlNWQJP8Ni-24" value="" style="endArrow=none;html=1;sourcePerimeterSpacing=8;targetPerimeterSpacing=8;exitX=0.5;exitY=1;exitDx=0;exitDy=0;entryX=1;entryY=0.5;entryDx=0;entryDy=0;" parent="1" source="J_9MN064SPP7KZqGjW3G-2" target="4TRkInArZm3En_-aM4AT-17" edge="1">
          <mxGeometry width="50" height="50" relative="1" as="geometry">
            <mxPoint x="-15.53125" y="382" as="sourcePoint" />
            <mxPoint x="-76" y="50" as="targetPoint" />
          </mxGeometry>
        </mxCell>
        <mxCell id="ZJh7k_RnWvVlNWQJP8Ni-25" value="" style="endArrow=none;html=1;sourcePerimeterSpacing=8;targetPerimeterSpacing=8;entryX=1;entryY=1;entryDx=0;entryDy=0;exitX=0.5;exitY=1;exitDx=0;exitDy=0;" parent="1" source="J_9MN064SPP7KZqGjW3G-2" target="4TRkInArZm3En_-aM4AT-19" edge="1">
          <mxGeometry width="50" height="50" relative="1" as="geometry">
            <mxPoint x="-5.53125" y="392" as="sourcePoint" />
            <mxPoint x="37.5" y="290" as="targetPoint" />
          </mxGeometry>
        </mxCell>
        <mxCell id="TNOlmFblQoI8VBXt5ZoZ-3" value="G_CLOSING_&lt;br&gt;TIME" style="ellipse;whiteSpace=wrap;html=1;" parent="1" vertex="1">
          <mxGeometry x="585" y="-400" width="95" height="80" as="geometry" />
        </mxCell>
        <mxCell id="ZJh7k_RnWvVlNWQJP8Ni-29" value="" style="endArrow=none;html=1;sourcePerimeterSpacing=8;targetPerimeterSpacing=8;entryX=0.5;entryY=1;entryDx=0;entryDy=0;exitX=0.5;exitY=0;exitDx=0;exitDy=0;" parent="1" source="4TRkInArZm3En_-aM4AT-1" target="4TRkInArZm3En_-aM4AT-31" edge="1">
          <mxGeometry width="50" height="50" relative="1" as="geometry">
            <mxPoint x="-90" y="340" as="sourcePoint" />
            <mxPoint x="4.039411686366748" y="228.3908022055066" as="targetPoint" />
          </mxGeometry>
        </mxCell>
        <mxCell id="ZJh7k_RnWvVlNWQJP8Ni-30" value="" style="endArrow=none;html=1;sourcePerimeterSpacing=8;targetPerimeterSpacing=8;entryX=0;entryY=1;entryDx=0;entryDy=0;exitX=0.5;exitY=0;exitDx=0;exitDy=0;" parent="1" source="4TRkInArZm3En_-aM4AT-1" target="4TRkInArZm3En_-aM4AT-26" edge="1">
          <mxGeometry width="50" height="50" relative="1" as="geometry">
            <mxPoint x="-80" y="350" as="sourcePoint" />
            <mxPoint x="14.039411686366748" y="238.3908022055066" as="targetPoint" />
          </mxGeometry>
        </mxCell>
        <mxCell id="ZJh7k_RnWvVlNWQJP8Ni-31" value="" style="endArrow=none;html=1;sourcePerimeterSpacing=8;targetPerimeterSpacing=8;entryX=0.5;entryY=1;entryDx=0;entryDy=0;exitX=0.5;exitY=0;exitDx=0;exitDy=0;" parent="1" source="4TRkInArZm3En_-aM4AT-1" target="4TRkInArZm3En_-aM4AT-30" edge="1">
          <mxGeometry width="50" height="50" relative="1" as="geometry">
            <mxPoint x="-70" y="360" as="sourcePoint" />
            <mxPoint x="24.039411686366748" y="248.3908022055066" as="targetPoint" />
          </mxGeometry>
        </mxCell>
        <mxCell id="ZJh7k_RnWvVlNWQJP8Ni-32" value="" style="endArrow=none;html=1;sourcePerimeterSpacing=8;targetPerimeterSpacing=8;entryX=0.5;entryY=1;entryDx=0;entryDy=0;exitX=0.5;exitY=0;exitDx=0;exitDy=0;" parent="1" source="4TRkInArZm3En_-aM4AT-1" target="4TRkInArZm3En_-aM4AT-32" edge="1">
          <mxGeometry width="50" height="50" relative="1" as="geometry">
            <mxPoint x="-60" y="370" as="sourcePoint" />
            <mxPoint x="34.03941168636675" y="258.3908022055066" as="targetPoint" />
          </mxGeometry>
        </mxCell>
        <mxCell id="ZJh7k_RnWvVlNWQJP8Ni-33" value="" style="endArrow=none;html=1;sourcePerimeterSpacing=8;targetPerimeterSpacing=8;entryX=0.5;entryY=1;entryDx=0;entryDy=0;exitX=0.5;exitY=0;exitDx=0;exitDy=0;" parent="1" source="4TRkInArZm3En_-aM4AT-1" target="4TRkInArZm3En_-aM4AT-34" edge="1">
          <mxGeometry width="50" height="50" relative="1" as="geometry">
            <mxPoint x="-50" y="380" as="sourcePoint" />
            <mxPoint x="44.03941168636675" y="268.3908022055066" as="targetPoint" />
          </mxGeometry>
        </mxCell>
        <mxCell id="ZJh7k_RnWvVlNWQJP8Ni-34" value="" style="endArrow=none;html=1;sourcePerimeterSpacing=8;targetPerimeterSpacing=8;entryX=0;entryY=1;entryDx=0;entryDy=0;exitX=0.5;exitY=0;exitDx=0;exitDy=0;" parent="1" source="4TRkInArZm3En_-aM4AT-1" target="4TRkInArZm3En_-aM4AT-29" edge="1">
          <mxGeometry width="50" height="50" relative="1" as="geometry">
            <mxPoint x="-40" y="390" as="sourcePoint" />
            <mxPoint x="54.03941168636675" y="278.3908022055066" as="targetPoint" />
          </mxGeometry>
        </mxCell>
        <mxCell id="ZJh7k_RnWvVlNWQJP8Ni-35" value="" style="endArrow=none;html=1;sourcePerimeterSpacing=8;targetPerimeterSpacing=8;entryX=0;entryY=1;entryDx=0;entryDy=0;exitX=0.5;exitY=0;exitDx=0;exitDy=0;" parent="1" source="4TRkInArZm3En_-aM4AT-1" target="TNOlmFblQoI8VBXt5ZoZ-1" edge="1">
          <mxGeometry width="50" height="50" relative="1" as="geometry">
            <mxPoint x="-30" y="400" as="sourcePoint" />
            <mxPoint x="64.03941168636675" y="288.3908022055066" as="targetPoint" />
          </mxGeometry>
        </mxCell>
        <mxCell id="ZJh7k_RnWvVlNWQJP8Ni-36" value="" style="endArrow=none;html=1;sourcePerimeterSpacing=8;targetPerimeterSpacing=8;entryX=0;entryY=1;entryDx=0;entryDy=0;exitX=0.5;exitY=0;exitDx=0;exitDy=0;" parent="1" source="4TRkInArZm3En_-aM4AT-1" target="4TRkInArZm3En_-aM4AT-33" edge="1">
          <mxGeometry width="50" height="50" relative="1" as="geometry">
            <mxPoint x="-20" y="410" as="sourcePoint" />
            <mxPoint x="74.03941168636675" y="298.3908022055066" as="targetPoint" />
          </mxGeometry>
        </mxCell>
        <mxCell id="ZJh7k_RnWvVlNWQJP8Ni-37" value="" style="endArrow=none;html=1;sourcePerimeterSpacing=8;targetPerimeterSpacing=8;entryX=0.5;entryY=1;entryDx=0;entryDy=0;exitX=0.5;exitY=0;exitDx=0;exitDy=0;" parent="1" source="4TRkInArZm3En_-aM4AT-1" target="TNOlmFblQoI8VBXt5ZoZ-3" edge="1">
          <mxGeometry width="50" height="50" relative="1" as="geometry">
            <mxPoint x="-10" y="420" as="sourcePoint" />
            <mxPoint x="84.03941168636675" y="308.3908022055066" as="targetPoint" />
          </mxGeometry>
        </mxCell>
        <mxCell id="ZJh7k_RnWvVlNWQJP8Ni-39" value="" style="endArrow=none;html=1;sourcePerimeterSpacing=8;targetPerimeterSpacing=8;entryX=0;entryY=0.5;entryDx=0;entryDy=0;exitX=1;exitY=0.5;exitDx=0;exitDy=0;" parent="1" source="4TRkInArZm3En_-aM4AT-1" target="TNOlmFblQoI8VBXt5ZoZ-13" edge="1">
          <mxGeometry width="50" height="50" relative="1" as="geometry">
            <mxPoint y="430" as="sourcePoint" />
            <mxPoint x="94.03941168636675" y="318.3908022055066" as="targetPoint" />
          </mxGeometry>
        </mxCell>
        <mxCell id="ZJh7k_RnWvVlNWQJP8Ni-41" value="" style="edgeStyle=segmentEdgeStyle;endArrow=classic;html=1;rounded=0;exitX=0;exitY=0.5;exitDx=0;exitDy=0;strokeColor=#000000;strokeWidth=5;startArrow=none;" parent="1" source="TNOlmFblQoI8VBXt5ZoZ-7" target="TNOlmFblQoI8VBXt5ZoZ-13" edge="1">
          <mxGeometry width="50" height="50" relative="1" as="geometry">
            <mxPoint x="1220" y="381.79" as="sourcePoint" />
            <mxPoint x="1030" y="381.79" as="targetPoint" />
            <Array as="points" />
          </mxGeometry>
        </mxCell>
        <mxCell id="ZJh7k_RnWvVlNWQJP8Ni-43" value="" style="endArrow=none;html=1;sourcePerimeterSpacing=8;targetPerimeterSpacing=8;entryX=0.5;entryY=1;entryDx=0;entryDy=0;exitX=0.5;exitY=0;exitDx=0;exitDy=0;" parent="1" source="TNOlmFblQoI8VBXt5ZoZ-7" target="zpkmHXnzWcy7r22Rmnru-5" edge="1">
          <mxGeometry width="50" height="50" relative="1" as="geometry">
            <mxPoint x="555" y="342.5" as="sourcePoint" />
            <mxPoint x="342.5" y="105" as="targetPoint" />
          </mxGeometry>
        </mxCell>
        <mxCell id="ZJh7k_RnWvVlNWQJP8Ni-44" value="" style="endArrow=none;html=1;sourcePerimeterSpacing=8;targetPerimeterSpacing=8;entryX=0.5;entryY=1;entryDx=0;entryDy=0;exitX=0.5;exitY=0;exitDx=0;exitDy=0;" parent="1" source="TNOlmFblQoI8VBXt5ZoZ-7" target="GAJ-hxF9hq5HiU7WZVeW-1" edge="1">
          <mxGeometry width="50" height="50" relative="1" as="geometry">
            <mxPoint x="1285" y="160" as="sourcePoint" />
            <mxPoint x="1340" y="29.999999999999773" as="targetPoint" />
          </mxGeometry>
        </mxCell>
        <mxCell id="ZJh7k_RnWvVlNWQJP8Ni-45" value="" style="endArrow=none;html=1;rounded=0;fontSize=16;fontColor=#FF0000;edgeStyle=orthogonalEdgeStyle;exitX=1;exitY=0.5;exitDx=0;exitDy=0;entryX=0;entryY=0.5;entryDx=0;entryDy=0;" parent="1" source="TNOlmFblQoI8VBXt5ZoZ-7" target="TNOlmFblQoI8VBXt5ZoZ-57" edge="1">
          <mxGeometry width="50" height="50" relative="1" as="geometry">
            <mxPoint x="1400" y="290" as="sourcePoint" />
            <mxPoint x="1630" y="320" as="targetPoint" />
          </mxGeometry>
        </mxCell>
        <mxCell id="ZJh7k_RnWvVlNWQJP8Ni-46" value="" style="endArrow=none;html=1;fillColor=#000000;exitX=0.5;exitY=0;exitDx=0;exitDy=0;entryX=0.5;entryY=1;entryDx=0;entryDy=0;" parent="1" source="TNOlmFblQoI8VBXt5ZoZ-56" target="zpkmHXnzWcy7r22Rmnru-8" edge="1">
          <mxGeometry width="50" height="50" relative="1" as="geometry">
            <mxPoint x="2098.95" y="325.5999999999999" as="sourcePoint" />
            <mxPoint x="2091.9988898138918" y="199.97779627784303" as="targetPoint" />
          </mxGeometry>
        </mxCell>
        <mxCell id="ZJh7k_RnWvVlNWQJP8Ni-51" value="" style="endArrow=none;html=1;fillColor=#000000;exitX=0;exitY=0.5;exitDx=0;exitDy=0;entryX=1;entryY=0.5;entryDx=0;entryDy=0;" parent="1" source="4TRkInArZm3En_-aM4AT-48" target="4TRkInArZm3En_-aM4AT-42" edge="1">
          <mxGeometry width="50" height="50" relative="1" as="geometry">
            <mxPoint x="1360" y="572.5" as="sourcePoint" />
            <mxPoint x="1420" y="572.5" as="targetPoint" />
          </mxGeometry>
        </mxCell>
        <mxCell id="ZJh7k_RnWvVlNWQJP8Ni-52" value="" style="endArrow=none;html=1;fillColor=#000000;exitX=0;exitY=0.5;exitDx=0;exitDy=0;entryX=1;entryY=0.5;entryDx=0;entryDy=0;" parent="1" source="4TRkInArZm3En_-aM4AT-43" target="4TRkInArZm3En_-aM4AT-42" edge="1">
          <mxGeometry width="50" height="50" relative="1" as="geometry">
            <mxPoint x="805" y="1000" as="sourcePoint" />
            <mxPoint x="995" y="950" as="targetPoint" />
          </mxGeometry>
        </mxCell>
        <mxCell id="ZJh7k_RnWvVlNWQJP8Ni-53" value="" style="endArrow=none;html=1;fillColor=#000000;exitX=0;exitY=0.5;exitDx=0;exitDy=0;entryX=1;entryY=0.5;entryDx=0;entryDy=0;" parent="1" source="4TRkInArZm3En_-aM4AT-44" target="4TRkInArZm3En_-aM4AT-42" edge="1">
          <mxGeometry width="50" height="50" relative="1" as="geometry">
            <mxPoint x="815" y="1010" as="sourcePoint" />
            <mxPoint x="980" y="940" as="targetPoint" />
          </mxGeometry>
        </mxCell>
        <mxCell id="ZJh7k_RnWvVlNWQJP8Ni-54" value="" style="endArrow=none;html=1;fillColor=#000000;entryX=1;entryY=0.5;entryDx=0;entryDy=0;exitX=0;exitY=0.5;exitDx=0;exitDy=0;" parent="1" source="eBdyAH_MPgxRvwM_sHwe-5" target="4TRkInArZm3En_-aM4AT-42" edge="1">
          <mxGeometry width="50" height="50" relative="1" as="geometry">
            <mxPoint x="1780" y="815" as="sourcePoint" />
            <mxPoint x="1015" y="970" as="targetPoint" />
          </mxGeometry>
        </mxCell>
        <mxCell id="ZJh7k_RnWvVlNWQJP8Ni-55" value="" style="endArrow=none;html=1;fillColor=#000000;exitX=0;exitY=0.5;exitDx=0;exitDy=0;entryX=1;entryY=0.5;entryDx=0;entryDy=0;" parent="1" source="4TRkInArZm3En_-aM4AT-47" target="4TRkInArZm3En_-aM4AT-42" edge="1">
          <mxGeometry width="50" height="50" relative="1" as="geometry">
            <mxPoint x="835" y="1030" as="sourcePoint" />
            <mxPoint x="980" y="940" as="targetPoint" />
          </mxGeometry>
        </mxCell>
        <mxCell id="ZJh7k_RnWvVlNWQJP8Ni-56" value="" style="endArrow=none;html=1;fillColor=#000000;exitX=0.042;exitY=0.375;exitDx=0;exitDy=0;exitPerimeter=0;entryX=1;entryY=0.5;entryDx=0;entryDy=0;" parent="1" source="4TRkInArZm3En_-aM4AT-46" target="4TRkInArZm3En_-aM4AT-42" edge="1">
          <mxGeometry width="50" height="50" relative="1" as="geometry">
            <mxPoint x="845" y="1040" as="sourcePoint" />
            <mxPoint x="1450" y="1028" as="targetPoint" />
          </mxGeometry>
        </mxCell>
        <mxCell id="ZJh7k_RnWvVlNWQJP8Ni-60" value="" style="endArrow=none;html=1;rounded=0;fontSize=16;fontColor=#FF0000;edgeStyle=orthogonalEdgeStyle;entryX=0.5;entryY=1;entryDx=0;entryDy=0;" parent="1" source="4TRkInArZm3En_-aM4AT-42" target="TNOlmFblQoI8VBXt5ZoZ-30" edge="1">
          <mxGeometry width="50" height="50" relative="1" as="geometry">
            <mxPoint x="677.5" y="805" as="sourcePoint" />
            <mxPoint x="920" y="900" as="targetPoint" />
          </mxGeometry>
        </mxCell>
        <mxCell id="GAJ-hxF9hq5HiU7WZVeW-1" value="SP_NAME" style="ellipse;whiteSpace=wrap;html=1;" parent="1" vertex="1">
          <mxGeometry x="1300" y="-50" width="95" height="80" as="geometry" />
        </mxCell>
        <mxCell id="GAJ-hxF9hq5HiU7WZVeW-2" value="" style="endArrow=none;dashed=1;html=1;rounded=0;" parent="1" edge="1">
          <mxGeometry width="50" height="50" relative="1" as="geometry">
            <mxPoint x="1330" as="sourcePoint" />
            <mxPoint x="1370" as="targetPoint" />
          </mxGeometry>
        </mxCell>
        <mxCell id="J_9MN064SPP7KZqGjW3G-2" value="USER_INFO" style="rounded=0;whiteSpace=wrap;html=1;hachureGap=4;pointerEvents=0;direction=south;fontSize=16;fontStyle=1" parent="1" vertex="1">
          <mxGeometry x="-1200" y="197.5" width="150" height="100" as="geometry" />
        </mxCell>
        <mxCell id="J_9MN064SPP7KZqGjW3G-4" value="TRAINER" style="rounded=0;whiteSpace=wrap;html=1;hachureGap=4;pointerEvents=0;direction=south;fontSize=16;fontStyle=1" parent="1" vertex="1">
          <mxGeometry x="-620" y="280" width="150" height="100" as="geometry" />
        </mxCell>
        <mxCell id="J_9MN064SPP7KZqGjW3G-5" value="&lt;font style=&quot;font-size: 17px&quot;&gt;&lt;sup&gt;IS_A&lt;/sup&gt;&lt;/font&gt;" style="triangle;whiteSpace=wrap;rotation=-180;horizontal=0;verticalAlign=middle;html=1;" parent="1" vertex="1">
          <mxGeometry x="-990" y="207.5" width="60" height="80" as="geometry" />
        </mxCell>
        <mxCell id="J_9MN064SPP7KZqGjW3G-12" value="BELONGS" style="rhombus;whiteSpace=wrap;html=1;hachureGap=4;pointerEvents=0;" parent="1" vertex="1">
          <mxGeometry x="-160" y="267.5" width="150" height="125" as="geometry" />
        </mxCell>
        <mxCell id="J_9MN064SPP7KZqGjW3G-14" value="" style="endArrow=none;html=1;rounded=0;fontSize=16;fontColor=#FF0000;edgeStyle=orthogonalEdgeStyle;entryX=0;entryY=0.75;entryDx=0;entryDy=0;exitX=1;exitY=0.5;exitDx=0;exitDy=0;" parent="1" source="J_9MN064SPP7KZqGjW3G-12" target="4TRkInArZm3En_-aM4AT-1" edge="1">
          <mxGeometry width="50" height="50" relative="1" as="geometry">
            <mxPoint x="555" y="442.5" as="sourcePoint" />
            <mxPoint x="677.5" y="635" as="targetPoint" />
          </mxGeometry>
        </mxCell>
        <mxCell id="J_9MN064SPP7KZqGjW3G-15" value="CLASS" style="rounded=0;whiteSpace=wrap;html=1;hachureGap=4;pointerEvents=0;direction=south;fontSize=16;fontStyle=1" parent="1" vertex="1">
          <mxGeometry x="370" y="740" width="150" height="100" as="geometry" />
        </mxCell>
        <mxCell id="J_9MN064SPP7KZqGjW3G-16" value="GYM_USER" style="rounded=0;whiteSpace=wrap;html=1;hachureGap=4;pointerEvents=0;direction=south;fontSize=16;fontStyle=1" parent="1" vertex="1">
          <mxGeometry x="-620" y="435" width="150" height="100" as="geometry" />
        </mxCell>
        <mxCell id="J_9MN064SPP7KZqGjW3G-18" value="ASSIGNED" style="rhombus;whiteSpace=wrap;html=1;hachureGap=4;pointerEvents=0;fillColor=default;strokeColor=default;fontColor=default;" parent="1" vertex="1">
          <mxGeometry x="-160" y="600" width="150" height="125" as="geometry" />
        </mxCell>
        <mxCell id="J_9MN064SPP7KZqGjW3G-23" value="SCHEDULED" style="rhombus;whiteSpace=wrap;html=1;hachureGap=4;pointerEvents=0;" parent="1" vertex="1">
          <mxGeometry x="692.5" y="587.5" width="150" height="125" as="geometry" />
        </mxCell>
        <mxCell id="J_9MN064SPP7KZqGjW3G-45" value="" style="endArrow=none;html=1;rounded=0;fontSize=16;fontColor=#FF0000;edgeStyle=orthogonalEdgeStyle;entryX=0.5;entryY=0;entryDx=0;entryDy=0;exitX=0;exitY=0.5;exitDx=0;exitDy=0;startArrow=none;" parent="1" source="YYFyP0zHnBZp_gLLp1Qh-2" target="J_9MN064SPP7KZqGjW3G-16" edge="1">
          <mxGeometry width="50" height="50" relative="1" as="geometry">
            <mxPoint x="10" y="1360" as="sourcePoint" />
            <mxPoint x="-204.99999999999955" y="875" as="targetPoint" />
          </mxGeometry>
        </mxCell>
        <mxCell id="J_9MN064SPP7KZqGjW3G-46" value="IS_AUTHORISED" style="rhombus;whiteSpace=wrap;html=1;hachureGap=4;pointerEvents=0;" parent="1" vertex="1">
          <mxGeometry x="-160" y="1290" width="150" height="125" as="geometry" />
        </mxCell>
        <mxCell id="J_9MN064SPP7KZqGjW3G-47" value="" style="endArrow=none;html=1;rounded=0;fontSize=16;fontColor=#FF0000;edgeStyle=orthogonalEdgeStyle;entryX=1;entryY=0.5;entryDx=0;entryDy=0;exitX=0.25;exitY=1;exitDx=0;exitDy=0;" parent="1" source="4TRkInArZm3En_-aM4AT-42" target="J_9MN064SPP7KZqGjW3G-46" edge="1">
          <mxGeometry width="50" height="50" relative="1" as="geometry">
            <mxPoint x="1240" y="1120" as="sourcePoint" />
            <mxPoint x="-429.99999999999955" y="1250.0000000000005" as="targetPoint" />
          </mxGeometry>
        </mxCell>
        <mxCell id="J_9MN064SPP7KZqGjW3G-50" value="JOINS" style="rhombus;whiteSpace=wrap;html=1;hachureGap=4;pointerEvents=0;" parent="1" vertex="1">
          <mxGeometry x="-160" y="862.5" width="150" height="125" as="geometry" />
        </mxCell>
        <mxCell id="J_9MN064SPP7KZqGjW3G-53" value="S_PRICE_&lt;br&gt;CLASS" style="ellipse;whiteSpace=wrap;html=1;hachureGap=4;pointerEvents=0;" parent="1" vertex="1">
          <mxGeometry x="1550" y="920" width="95" height="80" as="geometry" />
        </mxCell>
        <mxCell id="J_9MN064SPP7KZqGjW3G-54" value="" style="endArrow=none;html=1;fillColor=#000000;exitX=0;exitY=0.5;exitDx=0;exitDy=0;entryX=1;entryY=0.5;entryDx=0;entryDy=0;" parent="1" source="J_9MN064SPP7KZqGjW3G-53" target="4TRkInArZm3En_-aM4AT-42" edge="1">
          <mxGeometry width="50" height="50" relative="1" as="geometry">
            <mxPoint x="815" y="1019.9999999999995" as="sourcePoint" />
            <mxPoint x="995" y="950" as="targetPoint" />
          </mxGeometry>
        </mxCell>
        <mxCell id="J_9MN064SPP7KZqGjW3G-55" value="C_WEEKDAY" style="ellipse;whiteSpace=wrap;html=1;hachureGap=4;pointerEvents=0;autosize=0;" parent="1" vertex="1">
          <mxGeometry x="402.5" y="1100" width="95" height="80" as="geometry" />
        </mxCell>
        <mxCell id="J_9MN064SPP7KZqGjW3G-56" value="C_END_TIME" style="ellipse;whiteSpace=wrap;html=1;hachureGap=4;pointerEvents=0;autosize=0;" parent="1" vertex="1">
          <mxGeometry x="260" y="965" width="95" height="80" as="geometry" />
        </mxCell>
        <mxCell id="J_9MN064SPP7KZqGjW3G-57" value="C_START_TIME" style="ellipse;whiteSpace=wrap;html=1;hachureGap=4;pointerEvents=0;autosize=0;" parent="1" vertex="1">
          <mxGeometry x="300" y="1067.5" width="95" height="80" as="geometry" />
        </mxCell>
        <mxCell id="J_9MN064SPP7KZqGjW3G-58" value="" style="endArrow=none;html=1;sourcePerimeterSpacing=8;targetPerimeterSpacing=8;entryX=0.5;entryY=0;entryDx=0;entryDy=0;exitX=1;exitY=0.5;exitDx=0;exitDy=0;" parent="1" source="J_9MN064SPP7KZqGjW3G-15" target="J_9MN064SPP7KZqGjW3G-55" edge="1">
          <mxGeometry width="50" height="50" relative="1" as="geometry">
            <mxPoint x="-579.9999999999995" y="482.5" as="sourcePoint" />
            <mxPoint x="-685.7890334707217" y="748.533457260618" as="targetPoint" />
          </mxGeometry>
        </mxCell>
        <mxCell id="J_9MN064SPP7KZqGjW3G-59" value="" style="endArrow=none;html=1;sourcePerimeterSpacing=8;targetPerimeterSpacing=8;entryX=0.5;entryY=0;entryDx=0;entryDy=0;exitX=1;exitY=0.5;exitDx=0;exitDy=0;" parent="1" source="J_9MN064SPP7KZqGjW3G-15" target="J_9MN064SPP7KZqGjW3G-57" edge="1">
          <mxGeometry width="50" height="50" relative="1" as="geometry">
            <mxPoint x="152.5" y="930" as="sourcePoint" />
            <mxPoint x="242.5" y="1027.5000000000005" as="targetPoint" />
          </mxGeometry>
        </mxCell>
        <mxCell id="J_9MN064SPP7KZqGjW3G-60" value="" style="endArrow=none;html=1;sourcePerimeterSpacing=8;targetPerimeterSpacing=8;entryX=0.5;entryY=0;entryDx=0;entryDy=0;exitX=1;exitY=0.5;exitDx=0;exitDy=0;" parent="1" source="J_9MN064SPP7KZqGjW3G-15" target="J_9MN064SPP7KZqGjW3G-56" edge="1">
          <mxGeometry width="50" height="50" relative="1" as="geometry">
            <mxPoint x="152.5" y="930" as="sourcePoint" />
            <mxPoint x="237.5" y="1120.0000000000005" as="targetPoint" />
          </mxGeometry>
        </mxCell>
        <mxCell id="J_9MN064SPP7KZqGjW3G-61" value="J_TIMESTAMP" style="ellipse;whiteSpace=wrap;html=1;hachureGap=4;pointerEvents=0;autosize=0;" parent="1" vertex="1">
          <mxGeometry x="-95" y="1020" width="95" height="80" as="geometry" />
        </mxCell>
        <mxCell id="J_9MN064SPP7KZqGjW3G-62" value="J_VALIDATE" style="ellipse;whiteSpace=wrap;html=1;hachureGap=4;pointerEvents=0;autosize=0;" parent="1" vertex="1">
          <mxGeometry x="-190" y="1080" width="95" height="80" as="geometry" />
        </mxCell>
        <mxCell id="J_9MN064SPP7KZqGjW3G-63" value="" style="endArrow=none;html=1;sourcePerimeterSpacing=8;targetPerimeterSpacing=8;entryX=0.5;entryY=0;entryDx=0;entryDy=0;exitX=0.5;exitY=1;exitDx=0;exitDy=0;" parent="1" source="J_9MN064SPP7KZqGjW3G-50" target="J_9MN064SPP7KZqGjW3G-61" edge="1">
          <mxGeometry width="50" height="50" relative="1" as="geometry">
            <mxPoint x="152.5" y="930" as="sourcePoint" />
            <mxPoint x="142.5" y="1060.0000000000005" as="targetPoint" />
          </mxGeometry>
        </mxCell>
        <mxCell id="J_9MN064SPP7KZqGjW3G-64" value="" style="endArrow=none;html=1;sourcePerimeterSpacing=8;targetPerimeterSpacing=8;entryX=0.5;entryY=0;entryDx=0;entryDy=0;exitX=0.5;exitY=1;exitDx=0;exitDy=0;" parent="1" source="J_9MN064SPP7KZqGjW3G-50" target="J_9MN064SPP7KZqGjW3G-62" edge="1">
          <mxGeometry width="50" height="50" relative="1" as="geometry">
            <mxPoint x="162.5" y="940" as="sourcePoint" />
            <mxPoint x="152.5" y="1070.0000000000005" as="targetPoint" />
          </mxGeometry>
        </mxCell>
        <mxCell id="J_9MN064SPP7KZqGjW3G-67" value="" style="endArrow=none;html=1;rounded=0;fontSize=16;fontColor=#FF0000;edgeStyle=orthogonalEdgeStyle;entryX=0.5;entryY=0;entryDx=0;entryDy=0;" parent="1" target="TNOlmFblQoI8VBXt5ZoZ-30" edge="1">
          <mxGeometry width="50" height="50" relative="1" as="geometry">
            <mxPoint x="1275" y="250" as="sourcePoint" />
            <mxPoint x="600" y="812.5" as="targetPoint" />
            <Array as="points">
              <mxPoint x="1275" y="460" />
              <mxPoint x="1275" y="460" />
            </Array>
          </mxGeometry>
        </mxCell>
        <mxCell id="J_9MN064SPP7KZqGjW3G-73" value="" style="endArrow=none;html=1;rounded=0;fontSize=16;fontColor=#FF0000;edgeStyle=orthogonalEdgeStyle;entryX=0;entryY=0.5;entryDx=0;entryDy=0;exitX=0.5;exitY=0;exitDx=0;exitDy=0;" parent="1" source="J_9MN064SPP7KZqGjW3G-4" target="J_9MN064SPP7KZqGjW3G-12" edge="1">
          <mxGeometry width="50" height="50" relative="1" as="geometry">
            <mxPoint x="-105" y="432.5" as="sourcePoint" />
            <mxPoint x="-215" y="740" as="targetPoint" />
          </mxGeometry>
        </mxCell>
        <mxCell id="XjP9Z245DTy76A4LOe0p-2" value="" style="endArrow=none;html=1;rounded=0;fontSize=16;fontColor=#FF0000;edgeStyle=orthogonalEdgeStyle;exitX=0;exitY=0.5;exitDx=0;exitDy=0;entryX=0.5;entryY=1;entryDx=0;entryDy=0;" parent="1" source="J_9MN064SPP7KZqGjW3G-5" target="J_9MN064SPP7KZqGjW3G-16" edge="1">
          <mxGeometry width="50" height="50" relative="1" as="geometry">
            <mxPoint x="-329.99999999999955" y="260" as="sourcePoint" />
            <mxPoint x="-179.99999999999955" y="382.5" as="targetPoint" />
            <Array as="points">
              <mxPoint x="-850" y="247" />
            </Array>
          </mxGeometry>
        </mxCell>
        <mxCell id="YYFyP0zHnBZp_gLLp1Qh-4" value="" style="edgeStyle=segmentEdgeStyle;endArrow=classic;html=1;rounded=0;exitX=0.5;exitY=1;exitDx=0;exitDy=0;strokeColor=#000000;strokeWidth=5;startArrow=none;labelBackgroundColor=default;fontColor=default;" parent="1" source="J_9MN064SPP7KZqGjW3G-15" target="J_9MN064SPP7KZqGjW3G-18" edge="1">
          <mxGeometry width="50" height="50" relative="1" as="geometry">
            <mxPoint x="30" y="870" as="sourcePoint" />
            <mxPoint x="-225" y="855" as="targetPoint" />
            <Array as="points" />
          </mxGeometry>
        </mxCell>
        <mxCell id="YYFyP0zHnBZp_gLLp1Qh-9" value="" style="endArrow=none;html=1;rounded=0;fontSize=16;fontColor=#FF0000;edgeStyle=orthogonalEdgeStyle;entryX=0.5;entryY=1;entryDx=0;entryDy=0;exitX=0;exitY=0.5;exitDx=0;exitDy=0;strokeColor=default;labelBackgroundColor=default;" parent="1" source="J_9MN064SPP7KZqGjW3G-5" target="4TRkInArZm3En_-aM4AT-5" edge="1">
          <mxGeometry width="50" height="50" relative="1" as="geometry">
            <mxPoint x="-520" y="247.5" as="sourcePoint" />
            <mxPoint x="-215" y="740" as="targetPoint" />
            <Array as="points">
              <mxPoint x="-850" y="248" />
              <mxPoint x="-850" y="190" />
            </Array>
          </mxGeometry>
        </mxCell>
        <mxCell id="YYFyP0zHnBZp_gLLp1Qh-10" value="" style="endArrow=none;html=1;rounded=0;fontSize=16;fontColor=#FF0000;edgeStyle=orthogonalEdgeStyle;exitX=0;exitY=0.5;exitDx=0;exitDy=0;strokeColor=default;labelBackgroundColor=default;entryX=0.5;entryY=1;entryDx=0;entryDy=0;" parent="1" source="J_9MN064SPP7KZqGjW3G-5" target="J_9MN064SPP7KZqGjW3G-4" edge="1">
          <mxGeometry width="50" height="50" relative="1" as="geometry">
            <mxPoint x="-520" y="247.5" as="sourcePoint" />
            <mxPoint x="-580" y="350" as="targetPoint" />
            <Array as="points">
              <mxPoint x="-850" y="248" />
              <mxPoint x="-850" y="338" />
            </Array>
          </mxGeometry>
        </mxCell>
        <mxCell id="8N7jD8lyXNaNvRk3-xU_-1" value="" style="endArrow=none;html=1;rounded=0;fontSize=16;fontColor=#FF0000;edgeStyle=orthogonalEdgeStyle;strokeColor=default;labelBackgroundColor=default;entryX=0;entryY=0.5;entryDx=0;entryDy=0;exitX=0.81;exitY=1.007;exitDx=0;exitDy=0;exitPerimeter=0;" parent="1" source="J_9MN064SPP7KZqGjW3G-4" target="8N7jD8lyXNaNvRk3-xU_-2" edge="1">
          <mxGeometry width="50" height="50" relative="1" as="geometry">
            <mxPoint x="-660" y="360" as="sourcePoint" />
            <mxPoint x="-370" y="1810" as="targetPoint" />
            <Array as="points">
              <mxPoint x="-690" y="360" />
              <mxPoint x="-690" y="1040" />
              <mxPoint x="-440" y="1040" />
              <mxPoint x="-440" y="1493" />
            </Array>
          </mxGeometry>
        </mxCell>
        <mxCell id="8N7jD8lyXNaNvRk3-xU_-2" value="IS_QUALIFIED" style="rhombus;whiteSpace=wrap;html=1;hachureGap=4;pointerEvents=0;fillColor=default;strokeColor=default;fontColor=default;" parent="1" vertex="1">
          <mxGeometry x="-160" y="1430" width="150" height="125" as="geometry" />
        </mxCell>
        <mxCell id="8N7jD8lyXNaNvRk3-xU_-3" value="" style="endArrow=none;html=1;rounded=0;fontSize=16;fontColor=#FF0000;edgeStyle=orthogonalEdgeStyle;strokeColor=default;labelBackgroundColor=default;entryX=1;entryY=0.5;entryDx=0;entryDy=0;exitX=0.5;exitY=1;exitDx=0;exitDy=0;" parent="1" source="4TRkInArZm3En_-aM4AT-42" target="8N7jD8lyXNaNvRk3-xU_-2" edge="1">
          <mxGeometry width="50" height="50" relative="1" as="geometry">
            <mxPoint x="1300" y="1120" as="sourcePoint" />
            <mxPoint x="60" y="1480" as="targetPoint" />
            <Array as="points">
              <mxPoint x="1275" y="1493" />
            </Array>
          </mxGeometry>
        </mxCell>
        <mxCell id="8N7jD8lyXNaNvRk3-xU_-4" value="&lt;u&gt;C_ID&lt;/u&gt;" style="ellipse;whiteSpace=wrap;html=1;hachureGap=4;pointerEvents=0;autosize=0;fillColor=default;strokeColor=default;fontColor=default;" parent="1" vertex="1">
          <mxGeometry x="460" y="950" width="95" height="80" as="geometry" />
        </mxCell>
        <mxCell id="8N7jD8lyXNaNvRk3-xU_-5" value="" style="endArrow=none;html=1;sourcePerimeterSpacing=8;targetPerimeterSpacing=8;entryX=0.5;entryY=0;entryDx=0;entryDy=0;strokeColor=default;labelBackgroundColor=default;fontColor=default;exitX=1;exitY=0.5;exitDx=0;exitDy=0;" parent="1" source="J_9MN064SPP7KZqGjW3G-15" target="8N7jD8lyXNaNvRk3-xU_-4" edge="1">
          <mxGeometry width="50" height="50" relative="1" as="geometry">
            <mxPoint x="105" y="920" as="sourcePoint" />
            <mxPoint x="209.99999999999955" y="1050" as="targetPoint" />
          </mxGeometry>
        </mxCell>
        <mxCell id="X6-IkyrahAYv3lcu4xYX-1" value="" style="endArrow=none;html=1;rounded=0;fontSize=16;fontColor=#FF0000;edgeStyle=orthogonalEdgeStyle;entryX=0.75;entryY=1;entryDx=0;entryDy=0;exitX=0;exitY=0.5;exitDx=0;exitDy=0;" parent="1" source="53b_XYJxWmYopo7aiz7j-1" target="4TRkInArZm3En_-aM4AT-42" edge="1">
          <mxGeometry width="50" height="50" relative="1" as="geometry">
            <mxPoint x="2090" y="1490" as="sourcePoint" />
            <mxPoint x="1550" y="1695" as="targetPoint" />
          </mxGeometry>
        </mxCell>
        <mxCell id="X6-IkyrahAYv3lcu4xYX-2" value="HEALTH_BENEFITS" style="rounded=0;whiteSpace=wrap;html=1;hachureGap=4;pointerEvents=0;fontSize=16;fontStyle=1" parent="1" vertex="1">
          <mxGeometry x="1685" y="1242.5" width="150" height="100" as="geometry" />
        </mxCell>
        <mxCell id="X6-IkyrahAYv3lcu4xYX-3" value="HB_ID" style="ellipse;whiteSpace=wrap;html=1;hachureGap=4;pointerEvents=0;fontStyle=4" parent="1" vertex="1">
          <mxGeometry x="1940" y="1260" width="95" height="80" as="geometry" />
        </mxCell>
        <mxCell id="X6-IkyrahAYv3lcu4xYX-4" value="HB_&lt;br&gt;DESCRIPTION" style="ellipse;whiteSpace=wrap;html=1;hachureGap=4;pointerEvents=0;" parent="1" vertex="1">
          <mxGeometry x="1940" y="1169" width="95" height="80" as="geometry" />
        </mxCell>
        <mxCell id="X6-IkyrahAYv3lcu4xYX-5" value="" style="endArrow=none;html=1;fillColor=#000000;exitX=0;exitY=0.5;exitDx=0;exitDy=0;entryX=1;entryY=0.5;entryDx=0;entryDy=0;" parent="1" source="X6-IkyrahAYv3lcu4xYX-4" target="X6-IkyrahAYv3lcu4xYX-2" edge="1">
          <mxGeometry width="50" height="50" relative="1" as="geometry">
            <mxPoint x="2110" y="1330" as="sourcePoint" />
            <mxPoint x="1460" y="1037.5" as="targetPoint" />
          </mxGeometry>
        </mxCell>
        <mxCell id="X6-IkyrahAYv3lcu4xYX-6" value="" style="endArrow=none;html=1;fillColor=#000000;exitX=0;exitY=0.5;exitDx=0;exitDy=0;entryX=1;entryY=0.5;entryDx=0;entryDy=0;" parent="1" source="X6-IkyrahAYv3lcu4xYX-3" target="X6-IkyrahAYv3lcu4xYX-2" edge="1">
          <mxGeometry width="50" height="50" relative="1" as="geometry">
            <mxPoint x="2280.0000000000673" y="1640" as="sourcePoint" />
            <mxPoint x="2190" y="1570" as="targetPoint" />
          </mxGeometry>
        </mxCell>
        <mxCell id="X6-IkyrahAYv3lcu4xYX-8" value="" style="endArrow=none;html=1;rounded=0;fontSize=16;fontColor=#FF0000;edgeStyle=orthogonalEdgeStyle;exitX=0.5;exitY=0;exitDx=0;exitDy=0;strokeColor=default;labelBackgroundColor=default;entryX=1;entryY=0.5;entryDx=0;entryDy=0;" parent="1" source="J_9MN064SPP7KZqGjW3G-2" target="J_9MN064SPP7KZqGjW3G-5" edge="1">
          <mxGeometry width="50" height="50" relative="1" as="geometry">
            <mxPoint x="-1130" y="257.5" as="sourcePoint" />
            <mxPoint x="-1230" y="270" as="targetPoint" />
          </mxGeometry>
        </mxCell>
        <mxCell id="X6-IkyrahAYv3lcu4xYX-12" value="" style="endArrow=none;html=1;rounded=0;fontSize=16;fontColor=#FF0000;edgeStyle=orthogonalEdgeStyle;exitX=0.5;exitY=0;exitDx=0;exitDy=0;entryX=0;entryY=0.5;entryDx=0;entryDy=0;" parent="1" source="4TRkInArZm3En_-aM4AT-5" target="4TRkInArZm3En_-aM4AT-2" edge="1">
          <mxGeometry width="50" height="50" relative="1" as="geometry">
            <mxPoint x="-460" y="340" as="sourcePoint" />
            <mxPoint x="-20" y="220" as="targetPoint" />
          </mxGeometry>
        </mxCell>
        <mxCell id="YYFyP0zHnBZp_gLLp1Qh-2" value="REGISTER" style="rhombus;whiteSpace=wrap;html=1;hachureGap=4;pointerEvents=0;" parent="1" vertex="1">
          <mxGeometry x="-160" y="422.5" width="150" height="125" as="geometry" />
        </mxCell>
        <mxCell id="X6-IkyrahAYv3lcu4xYX-13" value="" style="endArrow=none;html=1;rounded=0;fontSize=16;fontColor=#FF0000;edgeStyle=orthogonalEdgeStyle;exitX=0;exitY=0.5;exitDx=0;exitDy=0;entryX=1;entryY=0.407;entryDx=0;entryDy=0;entryPerimeter=0;" parent="1" source="J_9MN064SPP7KZqGjW3G-46" target="J_9MN064SPP7KZqGjW3G-16" edge="1">
          <mxGeometry width="50" height="50" relative="1" as="geometry">
            <mxPoint x="530" y="1355" as="sourcePoint" />
            <mxPoint x="-590" y="600" as="targetPoint" />
            <Array as="points">
              <mxPoint x="-370" y="1355" />
              <mxPoint x="-370" y="950" />
              <mxPoint x="-531" y="950" />
            </Array>
          </mxGeometry>
        </mxCell>
        <mxCell id="X6-IkyrahAYv3lcu4xYX-14" value="" style="endArrow=none;html=1;rounded=0;fontSize=16;fontColor=#FF0000;edgeStyle=orthogonalEdgeStyle;entryX=1;entryY=0.5;entryDx=0;entryDy=0;startArrow=none;exitX=0.25;exitY=1;exitDx=0;exitDy=0;" parent="1" source="4TRkInArZm3En_-aM4AT-1" target="YYFyP0zHnBZp_gLLp1Qh-2" edge="1">
          <mxGeometry width="50" height="50" relative="1" as="geometry">
            <mxPoint x="480" y="320" as="sourcePoint" />
            <mxPoint x="30" y="480" as="targetPoint" />
            <Array as="points">
              <mxPoint x="498" y="310" />
              <mxPoint x="300" y="310" />
              <mxPoint x="300" y="485" />
            </Array>
          </mxGeometry>
        </mxCell>
        <mxCell id="X6-IkyrahAYv3lcu4xYX-15" value="" style="endArrow=none;html=1;rounded=0;fontSize=16;fontColor=#FF0000;edgeStyle=orthogonalEdgeStyle;exitX=0;exitY=0.5;exitDx=0;exitDy=0;startArrow=none;entryX=1;entryY=0.75;entryDx=0;entryDy=0;" parent="1" source="J_9MN064SPP7KZqGjW3G-18" target="J_9MN064SPP7KZqGjW3G-4" edge="1">
          <mxGeometry width="50" height="50" relative="1" as="geometry">
            <mxPoint x="60" y="690" as="sourcePoint" />
            <mxPoint x="-620" y="400" as="targetPoint" />
            <Array as="points">
              <mxPoint x="-670" y="663" />
              <mxPoint x="-670" y="390" />
              <mxPoint x="-582" y="390" />
            </Array>
          </mxGeometry>
        </mxCell>
        <mxCell id="X6-IkyrahAYv3lcu4xYX-17" value="" style="endArrow=none;html=1;rounded=0;fontSize=16;fontColor=#FF0000;edgeStyle=orthogonalEdgeStyle;exitX=0;exitY=0.5;exitDx=0;exitDy=0;startArrow=none;entryX=1;entryY=0.25;entryDx=0;entryDy=0;" parent="1" source="J_9MN064SPP7KZqGjW3G-50" target="J_9MN064SPP7KZqGjW3G-16" edge="1">
          <mxGeometry width="50" height="50" relative="1" as="geometry">
            <mxPoint x="-290" y="739.9" as="sourcePoint" />
            <mxPoint x="-660" y="682.4" as="targetPoint" />
          </mxGeometry>
        </mxCell>
        <mxCell id="X6-IkyrahAYv3lcu4xYX-19" value="" style="endArrow=none;html=1;rounded=0;fontSize=16;fontColor=#FF0000;edgeStyle=orthogonalEdgeStyle;exitX=1;exitY=0.5;exitDx=0;exitDy=0;entryX=0.75;entryY=1;entryDx=0;entryDy=0;" parent="1" source="J_9MN064SPP7KZqGjW3G-50" target="J_9MN064SPP7KZqGjW3G-15" edge="1">
          <mxGeometry width="50" height="50" relative="1" as="geometry">
            <mxPoint y="340" as="sourcePoint" />
            <mxPoint x="250" y="840" as="targetPoint" />
          </mxGeometry>
        </mxCell>
        <mxCell id="53b_XYJxWmYopo7aiz7j-1" value="OFFERS_2" style="rhombus;whiteSpace=wrap;html=1;hachureGap=4;pointerEvents=0;" parent="1" vertex="1">
          <mxGeometry x="1440" y="1230" width="150" height="125" as="geometry" />
        </mxCell>
        <mxCell id="53b_XYJxWmYopo7aiz7j-2" value="" style="endArrow=none;html=1;rounded=0;fontSize=16;fontColor=#FF0000;edgeStyle=orthogonalEdgeStyle;entryX=1;entryY=0.5;entryDx=0;entryDy=0;" parent="1" source="X6-IkyrahAYv3lcu4xYX-2" target="53b_XYJxWmYopo7aiz7j-1" edge="1">
          <mxGeometry width="50" height="50" relative="1" as="geometry">
            <mxPoint x="1650" y="1400" as="sourcePoint" />
            <mxPoint x="2040" y="720" as="targetPoint" />
          </mxGeometry>
        </mxCell>
        <mxCell id="tPLMZJdz2gsb1gRVqAN1-2" value="" style="rounded=0;whiteSpace=wrap;html=1;gradientColor=#ffffff;fillColor=none;dashed=1;" vertex="1" parent="1">
          <mxGeometry x="1150" y="550" width="350" height="200" as="geometry" />
        </mxCell>
        <mxCell id="tPLMZJdz2gsb1gRVqAN1-5" value="" style="endArrow=none;html=1;rounded=0;fontSize=16;fontColor=#FF0000;edgeStyle=orthogonalEdgeStyle;entryX=0;entryY=0.5;entryDx=0;entryDy=0;exitX=0.5;exitY=0;exitDx=0;exitDy=0;" edge="1" parent="1" source="J_9MN064SPP7KZqGjW3G-15" target="J_9MN064SPP7KZqGjW3G-23">
          <mxGeometry width="50" height="50" relative="1" as="geometry">
            <mxPoint y="340" as="sourcePoint" />
            <mxPoint x="470" y="227.5" as="targetPoint" />
          </mxGeometry>
        </mxCell>
        <mxCell id="tPLMZJdz2gsb1gRVqAN1-6" value="" style="endArrow=none;html=1;rounded=0;fontSize=16;fontColor=#FF0000;edgeStyle=orthogonalEdgeStyle;exitX=1;exitY=0.5;exitDx=0;exitDy=0;entryX=0;entryY=0.55;entryDx=0;entryDy=0;entryPerimeter=0;" edge="1" parent="1" source="J_9MN064SPP7KZqGjW3G-23" target="tPLMZJdz2gsb1gRVqAN1-2">
          <mxGeometry width="50" height="50" relative="1" as="geometry">
            <mxPoint x="930" y="670" as="sourcePoint" />
            <mxPoint x="1060" y="690" as="targetPoint" />
            <Array as="points">
              <mxPoint x="1150" y="650" />
            </Array>
          </mxGeometry>
        </mxCell>
      </root>
    </mxGraphModel>
  </diagram>
</mxfile>
